{"title":"16.Blocks.2006.SWESUB.DVDRip.XviD.-Zen_Bud","uid":5686959,"size":736744016,"categoryP":"video","categoryS":"movies","magnet":"?xt=urn:btih:963921cbee2fd4e3d7c2dd835729fa1c106b94bf&amp;dn=16.Blocks.2006.SWESUB.DVDRip.XviD.-Zen_Bud&amp;tr=udp%3A%2F%2Ftracker.openbittorrent.com%3A80&amp;tr=udp%3A%2F%2Fopen.demonii.com%3A1337&amp;tr=udp%3A%2F%2Ftracker.coppersurfer.tk%3A6969&amp;tr=udp%3A%2F%2Fexodus.desync.com%3A6969","seeders":1,"leechers":1,"uploader":null,"files":1,"time":1278951540,"description":"General\nComplete name                    : 16.Blocks.2006.avi\nFormat                           : AVI\nFile size                        : 703 MiB\nDuration                         : 1h 37mn\nOverall bit rate                 : 1 008 Kbps\n\nVideo\nID                               : 0\nFormat                           : MPEG-4 Visual\nCodec ID/Hint                    : XviD\nDuration                         : 1h 37mn\nBit rate                         : 883 Kbps\nWidth                            : 720 pixels\nHeight                           : 424 pixels\nDisplay aspect ratio             : 2.40:1\nStream size                      : 615 MiB (88%)\nWriting library                  : XviD 1.1.2 (UTC 2006-11-01)\n\nAudio\n\nFormat                           : MPEG Audio\nCodec ID/Hint                    : MP3\nDuration                         : 1h 37mn\nBit rate                         : 112 Kbps\nChannel(s)                       : 2 channels\nSampling rate                    : 48.0 KHz\nStream size                      : 78.1 MiB (11%)\n\n\n &lt;a href=&quot;\nhttp://www.imdb.com/title/tt0450232/&quot; rel=&quot;nofollow&quot; target=&quot;_NEW&quot;&gt;\nhttp://www.imdb.com/title/tt0450232/&lt;/a&gt;","torrent":{"xt":"urn:btih:963921cbee2fd4e3d7c2dd835729fa1c106b94bf","amp;dn":"16.Blocks.2006.SWESUB.DVDRip.XviD.-Zen_Bud","amp;tr":["udp%3A%2F%2Ftracker.openbittorrent.com%3A80","udp%3A%2F%2Fopen.demonii.com%3A1337","udp%3A%2F%2Ftracker.coppersurfer.tk%3A6969","udp%3A%2F%2Fexodus.desync.com%3A6969"],"infoHash":"963921cbee2fd4e3d7c2dd835729fa1c106b94bf","infoHashBuffer":{"type":"Buffer","data":[150,57,33,203,238,47,212,227,215,194,221,131,87,41,250,28,16,107,148,191]},"announce":[],"urlList":[]}}